<?xml version="1.0" encoding="UTF-8" standalone="no"?>
<!-- Generator: Adobe Illustrator 25.2.3, SVG Export Plug-In . SVG Version: 6.00 Build 0)  -->

<svg
   version="1.1"
   id="Layer_1"
   x="0px"
   y="0px"
   viewBox="0 0 2785.9061 819.29262"
   xml:space="preserve"
   sodipodi:docname="mailrise-logo.svg"
   width="2089.4297pt"
   height="614.46948pt"
   inkscape:version="1.1 (c68e22c387, 2021-05-23)"
   xmlns:inkscape="http://www.inkscape.org/namespaces/inkscape"
   xmlns:sodipodi="http://sodipodi.sourceforge.net/DTD/sodipodi-0.dtd"
   xmlns:xlink="http://www.w3.org/1999/xlink"
   xmlns="http://www.w3.org/2000/svg"
   xmlns:svg="http://www.w3.org/2000/svg"><defs
   id="defs113" /><sodipodi:namedview
   id="namedview111"
   pagecolor="#ffffff"
   bordercolor="#666666"
   borderopacity="1.0"
   inkscape:pageshadow="2"
   inkscape:pageopacity="0.0"
   inkscape:pagecheckerboard="0"
   showgrid="false"
   fit-margin-top="50"
   fit-margin-left="50"
   fit-margin-right="50"
   fit-margin-bottom="50"
   units="pt"
   lock-margins="true"
   inkscape:zoom="0.30016683"
   inkscape:cx="1440.8654"
   inkscape:cy="721.26557"
   inkscape:window-width="1816"
   inkscape:window-height="1057"
   inkscape:window-x="-8"
   inkscape:window-y="-8"
   inkscape:window-maximized="1"
   inkscape:current-layer="g108"
   inkscape:document-units="pt" />
<style
   type="text/css"
   id="style62">
	.st0{fill:url(#SVGID_1_);}
	.st1{fill:#2E6E99;}
	.st2{fill:#3E8FB8;}
	.st3{clip-path:url(#SVGID_3_);fill:url(#SVGID_4_);}
	.st4{fill:#1C4F7B;}
</style>
<g
   id="g108"
   transform="translate(-584.39333,-468.60402)">
	<linearGradient
   id="SVGID_1_"
   gradientUnits="userSpaceOnUse"
   x1="995.32788"
   y1="721.83099"
   x2="995.32788"
   y2="1244.4551">
		<stop
   offset="0"
   style="stop-color:#ABD5EC"
   id="stop64" />
		<stop
   offset="1"
   style="stop-color:#73C2E2"
   id="stop66" />
	</linearGradient>
	<path
   class="st0"
   d="M 1308.86,1221.23 H 681.8 c -16.91,0 -30.74,-13.83 -30.74,-30.74 V 776.56 c 0,-16.91 13.83,-30.74 30.74,-30.74 h 627.06 c 16.91,0 30.74,13.83 30.74,30.74 v 413.94 c -0.01,16.9 -13.84,30.73 -30.74,30.73 z"
   id="path69"
   style="fill:url(#SVGID_1_)" />
	<path
   class="st1"
   d="m 681.86,1221.23 h 627.06 c 13.69,0 25.33,-9.06 29.26,-21.43 -110.12,-74.18 -220.21,-148.36 -330.29,-222.54 -2.46,-1.15 -7.42,-3.07 -13.89,-2.79 -4.92,0.25 -8.77,1.72 -11.07,2.79 -110.17,74.06 -220.29,148.16 -330.45,222.26 3.89,12.53 15.65,21.71 29.38,21.71 z"
   id="path71" />
	<path
   class="st2"
   d="m 1336.82,764.07 c -1.31,2.91 -3.11,5.61 -5.29,7.95 -4.06,2.75 -8.16,5.49 -12.21,8.2 -0.04,0 -0.04,0.04 -0.08,0.04 0,0 -0.04,0 -0.04,0.04 -103.85,69.84 -207.62,139.67 -311.48,209.51 -2.3,1.07 -6.15,2.54 -11.07,2.79 -6.48,0.29 -11.43,-1.64 -13.89,-2.79 C 879.19,920.01 775.63,850.22 672.02,780.42 h -0.04 c -0.04,0 -0.04,-0.04 -0.08,-0.04 0,0 -0.04,0 -0.04,-0.04 -4.3,-2.91 -8.65,-5.82 -12.95,-8.73 -0.04,-0.04 -0.08,-0.04 -0.12,-0.08 -2.05,-2.3 -3.73,-4.88 -4.96,-7.66 l 5.29,-7.99 c 4.06,-2.75 8.11,-5.45 12.17,-8.16 l 0.04,-0.04 c 103.89,-69.88 207.71,-139.76 311.6,-209.59 2.3,-1.07 6.15,-2.54 11.07,-2.79 6.48,-0.29 11.43,1.64 13.89,2.79 103.57,69.8 207.13,139.59 310.74,209.39 h 0.04 c 4.39,2.99 8.81,5.94 13.2,8.89 0.04,0.04 0.04,0.04 0.08,0.08 v 0.04 z"
   id="path73" />
	<g
   id="g88">
		<defs
   id="defs76">
			<path
   id="SVGID_2_"
   d="m 652.48,767.25 c 110.12,74.18 220.2,148.36 330.29,222.55 2.46,1.15 7.42,3.07 13.89,2.79 4.92,-0.25 8.77,-1.72 11.07,-2.79 110.16,-74.06 220.29,-148.16 330.45,-222.26 C 1224.33,700 1110.49,632.47 996.64,564.93 881.92,632.37 767.2,699.81 652.48,767.25 Z" />
		</defs>
		<clipPath
   id="SVGID_3_">
			<use
   xlink:href="#SVGID_2_"
   style="overflow:visible"
   id="use78"
   x="0"
   y="0"
   width="100%"
   height="100%" />
		</clipPath>
		<linearGradient
   id="SVGID_4_"
   gradientUnits="userSpaceOnUse"
   x1="983.84003"
   y1="673.44897"
   x2="989.30988"
   y2="1004.3799">
			<stop
   offset="0.162"
   style="stop-color:#FFFFFF"
   id="stop81" />
			<stop
   offset="1"
   style="stop-color:#EBEBEB"
   id="stop83" />
		</linearGradient>
		<path
   class="st3"
   d="m 1219.42,875.85 c 0,-20.58 -16.61,-37.85 -38.38,-41.28 v -0.67 c 0,-44.15 -39.62,-79.97 -88.45,-79.97 -4.79,0 -9.45,0.34 -14.06,1.01 0.19,-1.74 0.25,-3.49 0.25,-5.23 0,-37.29 -33.46,-67.49 -74.71,-67.49 -32.53,0 -60.21,18.84 -70.41,45.1 -10.89,-3.49 -22.64,-5.4 -34.9,-5.4 -58.22,0 -105.37,42.63 -105.37,95.27 0,5.85 0.56,11.59 1.74,17.15 -10.26,1.18 -19.53,5.51 -26.56,11.87 -8.4,7.65 -13.62,18.11 -13.62,29.64 0,23.06 20.9,41.95 46.4,41.95 h 3.6 v 74.8 h 384.82 v -77.7 c 6.05,-2.14 11.51,-5.35 16.02,-9.42 8.4,-7.64 13.63,-18.1 13.63,-29.63 z"
   clip-path="url(#SVGID_3_)"
   id="path86"
   style="fill:url(#SVGID_4_)" />
	</g>
	<g
   id="g106"
   transform="matrix(2.3197126,0,0,2.3197126,58.679854,-2198.2735)">
		<path
   class="st4"
   d="m 601.15,1287.68 h 47.22 l 46.48,121.97 46.97,-121.97 h 46.72 v 174.1 h -29.51 v -144.59 h -0.49 l -52.87,144.59 h -21.64 l -52.87,-144.59 h -0.49 v 144.59 h -29.51 v -174.1 z"
   id="path90" />
		<path
   class="st4"
   d="m 889.35,1445.55 h -0.74 c -4.27,6.72 -9.68,11.6 -16.23,14.63 -6.56,3.03 -13.77,4.55 -21.64,4.55 -5.41,0 -10.7,-0.74 -15.86,-2.21 -5.16,-1.48 -9.75,-3.69 -13.77,-6.64 -4.02,-2.95 -7.25,-6.64 -9.71,-11.07 -2.46,-4.43 -3.69,-9.59 -3.69,-15.49 0,-6.39 1.14,-11.84 3.44,-16.35 2.29,-4.51 5.37,-8.27 9.22,-11.31 3.85,-3.03 8.32,-5.45 13.4,-7.25 5.08,-1.81 10.37,-3.15 15.86,-4.06 5.49,-0.9 11.03,-1.48 16.6,-1.72 5.57,-0.25 10.82,-0.37 15.74,-0.37 h 7.38 v -3.2 c 0,-7.38 -2.55,-12.91 -7.62,-16.6 -5.08,-3.69 -11.55,-5.54 -19.42,-5.54 -6.24,0 -12.05,1.11 -17.46,3.32 -5.41,2.21 -10.08,5.21 -14.02,8.97 l -15.49,-15.49 c 6.56,-6.72 14.22,-11.56 22.99,-14.51 8.77,-2.95 17.83,-4.43 27.17,-4.43 8.36,0 15.41,0.94 21.15,2.83 5.74,1.89 10.49,4.31 14.26,7.26 3.77,2.95 6.68,6.36 8.73,10.21 2.05,3.85 3.52,7.74 4.43,11.68 0.9,3.93 1.43,7.74 1.6,11.43 0.16,3.69 0.24,6.93 0.24,9.71 v 67.87 h -26.56 z m -1.72,-36.64 h -6.15 c -4.1,0 -8.69,0.16 -13.77,0.49 -5.08,0.33 -9.88,1.1 -14.38,2.33 -4.51,1.23 -8.32,3.04 -11.43,5.41 -3.12,2.38 -4.67,5.7 -4.67,9.96 0,2.79 0.61,5.13 1.84,7.01 1.23,1.89 2.83,3.49 4.8,4.79 1.97,1.32 4.18,2.26 6.64,2.83 2.46,0.58 4.92,0.86 7.38,0.86 10.16,0 17.66,-2.42 22.5,-7.26 4.83,-4.83 7.26,-11.43 7.26,-19.79 v -6.63 z"
   id="path92" />
		<path
   class="st4"
   d="m 934.1,1303.66 c 0,-4.75 1.76,-8.89 5.29,-12.42 3.53,-3.53 7.99,-5.29 13.4,-5.29 5.41,0 9.96,1.68 13.65,5.04 3.69,3.36 5.53,7.58 5.53,12.66 0,5.08 -1.85,9.31 -5.53,12.66 -3.69,3.36 -8.24,5.04 -13.65,5.04 -5.41,0 -9.88,-1.76 -13.4,-5.29 -3.53,-3.5 -5.29,-7.64 -5.29,-12.4 z m 4.18,40.08 h 29.51 v 118.03 h -29.51 z"
   id="path94" />
		<path
   class="st4"
   d="m 992.38,1275.88 h 29.51 v 185.9 h -29.51 z"
   id="path96" />
		<path
   class="st4"
   d="m 1045.99,1343.74 h 29.51 v 18.69 h 0.49 c 3.27,-6.88 7.95,-12.21 14.02,-15.98 6.06,-3.77 13.03,-5.66 20.9,-5.66 1.8,0 3.57,0.16 5.29,0.49 1.72,0.33 3.48,0.74 5.29,1.23 v 28.52 c -2.46,-0.65 -4.88,-1.19 -7.25,-1.6 -2.38,-0.41 -4.71,-0.62 -7.01,-0.62 -6.88,0 -12.42,1.27 -16.6,3.81 -4.18,2.55 -7.38,5.45 -9.59,8.73 -2.21,3.28 -3.69,6.56 -4.43,9.84 -0.74,3.28 -1.1,5.74 -1.1,7.38 v 63.2 H 1046 v -118.03 z"
   id="path98" />
		<path
   class="st4"
   d="m 1128.12,1303.66 c 0,-4.75 1.76,-8.89 5.29,-12.42 3.53,-3.53 7.99,-5.29 13.4,-5.29 5.41,0 9.96,1.68 13.65,5.04 3.69,3.36 5.53,7.58 5.53,12.66 0,5.08 -1.84,9.31 -5.53,12.66 -3.69,3.36 -8.24,5.04 -13.65,5.04 -5.41,0 -9.88,-1.76 -13.4,-5.29 -3.53,-3.5 -5.29,-7.64 -5.29,-12.4 z m 4.18,40.08 h 29.51 v 118.03 h -29.51 z"
   id="path100" />
		<path
   class="st4"
   d="m 1248.85,1376.45 c -5.74,-8.03 -13.44,-12.05 -23.12,-12.05 -3.93,0 -7.79,0.98 -11.55,2.95 -3.77,1.97 -5.66,5.17 -5.66,9.59 0,3.61 1.56,6.24 4.67,7.87 3.11,1.64 7.04,3.03 11.8,4.18 4.75,1.15 9.87,2.34 15.37,3.57 5.49,1.23 10.61,3.11 15.37,5.66 4.75,2.55 8.69,6.02 11.8,10.45 3.11,4.43 4.67,10.49 4.67,18.2 0,7.05 -1.52,12.99 -4.55,17.83 -3.04,4.84 -6.97,8.73 -11.8,11.68 -4.84,2.95 -10.29,5.08 -16.35,6.39 -6.07,1.31 -12.14,1.97 -18.2,1.97 -9.18,0 -17.62,-1.32 -25.33,-3.94 -7.71,-2.62 -14.59,-7.38 -20.66,-14.26 l 19.67,-18.44 c 3.77,4.27 7.83,7.74 12.17,10.45 4.34,2.71 9.63,4.06 15.86,4.06 2.13,0 4.34,-0.25 6.64,-0.74 2.29,-0.49 4.43,-1.31 6.4,-2.46 1.97,-1.14 3.57,-2.58 4.79,-4.3 1.23,-1.72 1.85,-3.73 1.85,-6.02 0,-4.1 -1.56,-7.13 -4.67,-9.1 -3.11,-1.97 -7.05,-3.56 -11.8,-4.79 -4.75,-1.23 -9.88,-2.37 -15.37,-3.44 -5.5,-1.06 -10.61,-2.79 -15.37,-5.16 -4.75,-2.37 -8.69,-5.7 -11.8,-9.96 -3.12,-4.26 -4.67,-10.17 -4.67,-17.71 0,-6.56 1.35,-12.25 4.05,-17.09 2.71,-4.83 6.27,-8.81 10.7,-11.93 4.43,-3.11 9.51,-5.41 15.24,-6.88 5.74,-1.48 11.56,-2.21 17.46,-2.21 7.87,0 15.65,1.35 23.36,4.06 7.7,2.7 13.93,7.34 18.69,13.89 z"
   id="path102" />
		<path
   class="st4"
   d="m 1308.85,1413.09 c 0.98,8.85 4.43,15.74 10.33,20.66 5.9,4.92 13.03,7.38 21.39,7.38 7.38,0 13.56,-1.51 18.57,-4.55 5,-3.03 9.38,-6.84 13.16,-11.43 l 21.15,15.98 c -6.89,8.53 -14.6,14.59 -23.12,18.2 -8.53,3.6 -17.46,5.41 -26.8,5.41 -8.85,0 -17.21,-1.48 -25.08,-4.43 -7.87,-2.95 -14.67,-7.13 -20.41,-12.54 -5.74,-5.41 -10.29,-11.93 -13.65,-19.55 -3.36,-7.62 -5.04,-16.11 -5.04,-25.45 0,-9.35 1.68,-17.83 5.04,-25.45 3.36,-7.62 7.91,-14.14 13.65,-19.55 5.74,-5.41 12.54,-9.59 20.41,-12.54 7.87,-2.95 16.23,-4.43 25.08,-4.43 8.2,0 15.7,1.44 22.5,4.3 6.8,2.87 12.62,7.01 17.46,12.42 4.83,5.41 8.61,12.09 11.31,20.04 2.71,7.95 4.06,17.09 4.06,27.42 v 8.11 z m 60.49,-22.13 c -0.16,-8.69 -2.87,-15.53 -8.11,-20.54 -5.25,-5 -12.54,-7.5 -21.88,-7.5 -8.85,0 -15.86,2.55 -21.02,7.62 -5.17,5.08 -8.32,11.89 -9.47,20.41 h 60.48 z"
   id="path104" />
	</g>
</g>
</svg>
